<?xml version="1.0" standalone="no"?>
<!DOCTYPE svg PUBLIC "-//W3C//DTD SVG 20010904//EN"
 "http://www.w3.org/TR/2001/REC-SVG-20010904/DTD/svg10.dtd">
<svg version="1.0" xmlns="http://www.w3.org/2000/svg"
 width="150.000000pt" height="150.000000pt" viewBox="0 0 150.000000 150.000000"
 preserveAspectRatio="xMidYMid meet">
<metadata>
Created by potrace 1.11, written by Peter Selinger 2001-2013
</metadata>
<g transform="translate(0.000000,150.000000) scale(0.100000,-0.100000)"
fill="#000000" stroke="none">
<path d="M184 1485 c-3 -8 -11 -15 -18 -15 -23 -1 -62 -47 -89 -106 -15 -34
-27 -68 -27 -75 0 -8 -10 -32 -22 -54 -18 -32 -23 -61 -26 -147 -4 -95 -2
-110 16 -135 11 -16 23 -50 27 -75 6 -40 17 -57 74 -116 96 -100 181 -201 199
-239 9 -18 19 -33 23 -33 3 0 12 -15 20 -32 13 -33 43 -81 66 -106 7 -7 16
-24 19 -38 3 -13 10 -24 16 -24 12 0 -1 -42 -16 -52 -6 -4 -20 -8 -31 -8 -19
0 -75 -40 -75 -54 0 -16 -38 -47 -70 -57 -19 -6 -49 -22 -67 -35 -17 -13 -35
-24 -40 -25 -4 0 -18 -13 -31 -30 l-24 -29 696 0 696 0 0 125 0 125 -27 1
c-31 1 -33 1 -149 24 -45 9 -85 15 -90 13 -26 -7 -86 15 -100 38 -21 31 -14
140 14 224 21 65 38 191 47 345 5 83 10 130 15 130 1 0 4 17 5 38 1 20 7 43
12 50 6 6 7 23 3 37 -3 14 -3 39 2 56 5 20 4 43 -3 60 -6 16 -15 56 -19 88 -8
50 -15 65 -50 100 l-42 41 -464 3 c-409 2 -465 1 -470 -13z"/>
</g>
</svg>
